<svg xmlns="http://www.w3.org/2000/svg" xmlns:xlink="http://www.w3.org/1999/xlink" viewBox="0 0 400 300"><defs><style>.cls-1{fill:none;}.cls-2{fill:#fff;}.cls-3{fill:#f4f94c;}.cls-4{fill:#03fee3;}.cls-5{fill:#ff51dc;}.cls-6{fill:#00aded;}.cls-7{fill:url(#New_Pattern_Swatch_19);}</style><pattern id="New_Pattern_Swatch_19" data-name="New Pattern Swatch 19" width="64" height="60" patternTransform="translate(44.41 98.87)" patternUnits="userSpaceOnUse" viewBox="0 0 64 60"><rect class="cls-1" width="64" height="60"/><rect width="64" height="60"/><path class="cls-2" d="M11,44.73a1.49,1.49,0,0,0,1.44,1.16,1.39,1.39,0,0,0,.35,0A1.51,1.51,0,0,0,13.85,44l-2.22-9.47a1.48,1.48,0,0,0-1.78-1.12,1.52,1.52,0,0,0-1.1,1.83Z"/><path class="cls-3" d="M3,12.13l2.22-3.4a1.54,1.54,0,0,0-.41-2.11,1.46,1.46,0,0,0-2.05.43L.55,10.45A1.54,1.54,0,0,0,1,12.56a1.44,1.44,0,0,0,.82.25A1.48,1.48,0,0,0,3,12.13Z"/><path class="cls-3" d="M44.88,18.21A1.46,1.46,0,0,0,47,17.93L50.66,13a1.56,1.56,0,0,0-.27-2.13,1.47,1.47,0,0,0-2.08.28L44.6,16.09A1.54,1.54,0,0,0,44.88,18.21Z"/><path class="cls-2" d="M49.57,8.16,60,8.64h.07a1.52,1.52,0,0,0,.07-3L49.7,5.13a1.52,1.52,0,0,0-.13,3Z"/><path class="cls-3" d="M57.9,37.6l-5.31,5a1.54,1.54,0,0,0-.09,2.14,1.45,1.45,0,0,0,2.09.09l5.31-5A1.53,1.53,0,0,0,60,37.69,1.46,1.46,0,0,0,57.9,37.6Z"/><path class="cls-3" d="M3.22,41.88h.09a1.5,1.5,0,0,0,1.39-1.6l-.19-3.18a1.51,1.51,0,0,0-1.57-1.42,1.5,1.5,0,0,0-1.39,1.6l.19,3.19A1.5,1.5,0,0,0,3.22,41.88Z"/><path class="cls-3" d="M29.53,19.3a1.47,1.47,0,0,0,1.22.64,1.38,1.38,0,0,0,.84-.27A1.53,1.53,0,0,0,32,17.56l-4.08-6a1.45,1.45,0,0,0-2.06-.38,1.54,1.54,0,0,0-.37,2.11Z"/><path class="cls-4" d="M13.42,26.88a1.54,1.54,0,0,0,.84,2l5,2a1.47,1.47,0,0,0,.54.1,1.49,1.49,0,0,0,1.38-1,1.53,1.53,0,0,0-.85-2l-5-2A1.47,1.47,0,0,0,13.42,26.88Z"/><path class="cls-2" d="M45.33,35.25l-5,1a1.51,1.51,0,0,0-1.15,1.78,1.49,1.49,0,0,0,1.45,1.22,1.54,1.54,0,0,0,.3,0l5-1a1.51,1.51,0,0,0,1.15-1.79A1.48,1.48,0,0,0,45.33,35.25Z"/><path class="cls-3" d="M53,52.65a1.39,1.39,0,0,0,.53-.1L60,50a1.52,1.52,0,0,0,.85-2A1.46,1.46,0,0,0,59,47.16L52.5,49.72a1.52,1.52,0,0,0-.84,2A1.48,1.48,0,0,0,53,52.65Z"/><path class="cls-5" d="M48.74,51.38a1.49,1.49,0,0,0,1.33-2.19L47,42.8a1.47,1.47,0,0,0-2-.68,1.52,1.52,0,0,0-.67,2l3.11,6.39A1.45,1.45,0,0,0,48.74,51.38Z"/><path class="cls-4" d="M37.69,17.6a1.45,1.45,0,0,0-2.07-.33,1.53,1.53,0,0,0-.32,2.11l3.88,5.44a1.46,1.46,0,0,0,2.07.33A1.55,1.55,0,0,0,41.57,23Z"/><path class="cls-3" d="M57.83,28.15A1.47,1.47,0,0,0,59,27.57a1.54,1.54,0,0,0-.26-2.13L51.9,20a1.46,1.46,0,0,0-2.08.27,1.53,1.53,0,0,0,.26,2.12l6.84,5.44A1.47,1.47,0,0,0,57.83,28.15Z"/><path class="cls-4" d="M18.11,39.43a1.51,1.51,0,0,0-1.26,1.71L17.77,48a1.5,1.5,0,0,0,1.47,1.31h.2a1.52,1.52,0,0,0,1.27-1.71l-.93-6.86A1.47,1.47,0,0,0,18.11,39.43Z"/><path class="cls-3" d="M30.68,50.77a1.52,1.52,0,0,0-.72,2l2.4,5.34a1.49,1.49,0,0,0,1.35.88,1.37,1.37,0,0,0,.62-.14,1.54,1.54,0,0,0,.73-2l-2.41-5.34A1.46,1.46,0,0,0,30.68,50.77Z"/><path class="cls-3" d="M21.3,40.65a1.5,1.5,0,0,0,1.48,1.45h.06a1.49,1.49,0,0,0,1.42-1.57L24,32.28a1.52,1.52,0,0,0-1.54-1.45A1.49,1.49,0,0,0,21,32.4Z"/><path class="cls-5" d="M3.72,50.56A1.47,1.47,0,0,0,4.91,50L8.36,45.2a1.53,1.53,0,0,0-.31-2.12A1.47,1.47,0,0,0,6,43.4L2.53,48.15a1.54,1.54,0,0,0,.3,2.12A1.48,1.48,0,0,0,3.72,50.56Z"/><path class="cls-5" d="M52.35,35.67a1.41,1.41,0,0,0,.8-.24l4.93-3.23a1.53,1.53,0,0,0,.45-2.09,1.46,1.46,0,0,0-2.05-.46l-4.93,3.23A1.54,1.54,0,0,0,51.1,35,1.48,1.48,0,0,0,52.35,35.67Z"/><path class="cls-3" d="M40.38,34a1.46,1.46,0,0,0,1.08.48,1.49,1.49,0,0,0,1-.41l4.93-4.75a1.55,1.55,0,0,0,.06-2.15,1.46,1.46,0,0,0-2.09-.06l-4.93,4.75A1.53,1.53,0,0,0,40.38,34Z"/><path class="cls-6" d="M63.05,11.13A1.45,1.45,0,0,0,61,11.07L56,15.82A1.52,1.52,0,0,0,56,18a1.44,1.44,0,0,0,1.07.48,1.46,1.46,0,0,0,1-.42L63,13.27A1.53,1.53,0,0,0,63.05,11.13Z"/><path class="cls-3" d="M13.62,17.75a1.46,1.46,0,0,0-1.91-.87l-6,2.38a1.52,1.52,0,0,0-.84,2,1.47,1.47,0,0,0,1.38,1,1.39,1.39,0,0,0,.53-.1l6-2.37A1.52,1.52,0,0,0,13.62,17.75Z"/><path class="cls-6" d="M18.78,23.35A1.5,1.5,0,0,0,20.25,22l.93-10.18a1.48,1.48,0,1,0-2.95-.28L17.3,21.7a1.5,1.5,0,0,0,1.33,1.65Z"/><path class="cls-3" d="M29.71,33.4l.93-7.15a1.5,1.5,0,0,0-1.27-1.7,1.48,1.48,0,0,0-1.66,1.3L26.77,33A1.51,1.51,0,0,0,28,34.7h.2A1.49,1.49,0,0,0,29.71,33.4Z"/><path class="cls-2" d="M23.89,52.74l4-6.76a1.53,1.53,0,0,0-.49-2.08,1.46,1.46,0,0,0-2,.5l-4.05,6.76a1.55,1.55,0,0,0,.49,2.09,1.46,1.46,0,0,0,.77.22A1.48,1.48,0,0,0,23.89,52.74Z"/><path class="cls-3" d="M12.91,51.48a1.48,1.48,0,1,0-3,.13L10.29,60h3Z"/><path class="cls-3" d="M10.35,1.4a1.49,1.49,0,0,0,1.48,1.45h.06a1.5,1.5,0,0,0,1.42-1.57L13.26,0h-3Z"/><path class="cls-5" d="M33.31,33.18l1.54,8.08a1.49,1.49,0,0,0,1.45,1.22,1.27,1.27,0,0,0,.28,0,1.51,1.51,0,0,0,1.18-1.77L36.22,32.6a1.48,1.48,0,0,0-1.73-1.2A1.52,1.52,0,0,0,33.31,33.18Z"/><path class="cls-4" d="M37.52,51.09a1.47,1.47,0,0,0,1.28-.75,1.53,1.53,0,0,0-.54-2.07l-6-3.53a1.45,1.45,0,0,0-2,.55,1.53,1.53,0,0,0,.54,2.07l6,3.53A1.4,1.4,0,0,0,37.52,51.09Z"/><path class="cls-3" d="M38.39,56.18a1.61,1.61,0,0,0,.48-.08L45.09,54A1.53,1.53,0,0,0,46,52a1.47,1.47,0,0,0-1.87-1l-6.23,2.14A1.53,1.53,0,0,0,37,55.14,1.49,1.49,0,0,0,38.39,56.18Z"/><path class="cls-3" d="M31.85.41,26.67,6.85A1.54,1.54,0,0,0,26.87,9a1.46,1.46,0,0,0,.94.35A1.44,1.44,0,0,0,29,8.77l5.19-6.44A1.54,1.54,0,0,0,33.94.2a1.9,1.9,0,0,0-.37-.2H32.4A1.37,1.37,0,0,0,31.85.41Z"/><path class="cls-6" d="M43.64,2.29a1.53,1.53,0,0,0,0,2.14,1.45,1.45,0,0,0,2.09.05L50.28,0H46Z"/><path class="cls-5" d="M13,5.33a1.53,1.53,0,0,0-.54,2.07,1.46,1.46,0,0,0,1.28.76,1.52,1.52,0,0,0,.74-.2l9.4-5.58A1.53,1.53,0,0,0,24.39.31,1.58,1.58,0,0,0,24.12,0H22Z"/><path class="cls-3" d="M38.68.39a1.49,1.49,0,0,0-1.79,1.13l-2.21,9.55a1.52,1.52,0,0,0,1.1,1.83,2,2,0,0,0,.34,0,1.49,1.49,0,0,0,1.44-1.17l2.21-9.55A1.52,1.52,0,0,0,38.68.39Z"/><path class="cls-3" d="M32.4,60h1.17A1.41,1.41,0,0,0,32.4,60Z"/><path class="cls-6" d="M53.84,56.52a1.54,1.54,0,0,0,0-2.14,1.46,1.46,0,0,0-2.1-.05L46,60h4.3Z"/><path class="cls-5" d="M22.36,59.76,22,60h2.16A1.44,1.44,0,0,0,22.36,59.76Z"/><path class="cls-5" d="M63,21a1.37,1.37,0,0,0,.8-.24l.2-.13v-3.6l-1.8,1.18a1.53,1.53,0,0,0-.44,2.1A1.46,1.46,0,0,0,63,21Z"/><path class="cls-2" d="M64,28.05V24.72a1.53,1.53,0,0,0-.64,2Z"/><path class="cls-6" d="M60.41,3a1.48,1.48,0,0,0,1.92.87L64,3.19V0h-.16L61.26,1A1.54,1.54,0,0,0,60.41,3Z"/><polygon class="cls-3" points="64 59.94 63.84 60 64 60 64 59.94"/><path class="cls-5" d="M0,20.67l5-3.28a1.52,1.52,0,0,0,.44-2.09,1.45,1.45,0,0,0-2-.45L0,17.07Z"/><path class="cls-2" d="M3.79,34.06a1.38,1.38,0,0,0,.64-.16,1.53,1.53,0,0,0,.69-2L2,25.39a1.47,1.47,0,0,0-2-.7l0,0v3.33L2.45,33.2A1.5,1.5,0,0,0,3.79,34.06Z"/><path class="cls-6" d="M0,3.19,5.93.84A1.49,1.49,0,0,0,6.76,0H0Z"/><path class="cls-6" d="M6.78,58.88A1.47,1.47,0,0,0,4.86,58L0,59.94V60H6.76A1.54,1.54,0,0,0,6.78,58.88Z"/></pattern></defs><title>Asset 1</title><g id="Layer_2" data-name="Layer 2"><g id="Patterns"><rect class="cls-7" width="400" height="300"/></g></g></svg>